HIERARCHY
ROOT Hips
{
    OFFSET 0.11995139718055725 0.8053943514823914 -0.1620987206697464
    CHANNELS 6 Xposition Yposition Zposition Yrotation Zrotation Xrotation
    JOINT RightUpLeg
    {
        OFFSET -0.11995139718055725 0.0 0.0
        CHANNELS 3 Yrotation Zrotation Xrotation
        JOINT RightLeg
        {
            OFFSET 0.0 -0.40014755725860596 0.0
            CHANNELS 3 Yrotation Zrotation Xrotation
            JOINT RightFoot
            {
                OFFSET 0.0 -0.4052467942237854 0.0
                CHANNELS 3 Yrotation Zrotation Xrotation
                End Site RightFoot_End
                {
                    OFFSET 0.0 0.0 0.1620987206697464
                }
            }
        }
    }
    JOINT LeftUpLeg
    {
        OFFSET 0.11995139718055725 0.0 0.0
        CHANNELS 3 Yrotation Zrotation Xrotation
        JOINT LeftLeg
        {
            OFFSET 0.0 -0.40014755725860596 0.0
            CHANNELS 3 Yrotation Zrotation Xrotation
            JOINT LeftFoot
            {
                OFFSET 0.0 -0.4052467942237854 0.0
                CHANNELS 3 Yrotation Zrotation Xrotation
                End Site LeftFoot_End
                {
                    OFFSET 0.0 0.0 0.1620987206697464
                }
            }
        }
    }
    JOINT Spine
    {
        OFFSET 0.0 0.23084762692451477 0.0
        CHANNELS 3 Yrotation Zrotation Xrotation
        JOINT Spine3
        {
            OFFSET 0.0 0.253961443901062 0.0
            CHANNELS 3 Yrotation Zrotation Xrotation
            JOINT Neck
            {
                OFFSET 0.0 0.19330669939517975 0.0
                CHANNELS 3 Yrotation Zrotation Xrotation
                End Site Head
                {
                    OFFSET 0.0 0.07732267677783966 0.0
                }
            }
            JOINT LeftArm
            {
                OFFSET 0.1790892481803894 0.0 0.0
                CHANNELS 3 Yrotation Zrotation Xrotation
                JOINT LeftForeArm
                {
                    OFFSET 0.3056281805038452 0.0 0.0
                    CHANNELS 3 Yrotation Zrotation Xrotation
                    JOINT LeftHand
                    {
                        OFFSET 0.2666656970977783 0.0 0.0
                        CHANNELS 3 Yrotation Zrotation Xrotation
                        End Site LeftWristEndSite
                        {
                            OFFSET 0.10666627436876297 0.0 0.0
                        }
                    }
                }
            }
            JOINT RightArm
            {
                OFFSET -0.1790892481803894 0.0 0.0
                CHANNELS 3 Yrotation Zrotation Xrotation
                JOINT RightForeArm
                {
                    OFFSET -0.3056281805038452 0.0 0.0
                    CHANNELS 3 Yrotation Zrotation Xrotation
                    JOINT RightHand
                    {
                        OFFSET -0.2666656970977783 0.0 0.0
                        CHANNELS 3 Yrotation Zrotation Xrotation
                        End Site RightWristEndSite
                        {
                            OFFSET -0.10666627436876297 0.0 0.0
                        }
                    }
                }
            }
        }
    }
}
MOTION
Frames: 7
Frame Time: 0.03333333333333333
-0.0 0.21127444505691528 0.0 24.610862277531243 159.64560495079212 -96.20883848540167 -0.5818884645622843 -12.270530450305499 0.8489949599326571 -2.019577705772469 6.845662397498144 -15.3417944783026 3.1805546814635168e-15 -7.951386703658794e-16 -6.3611093629270335e-15 1.2046489133756781 4.584820172431526 -10.760314862475262 -0.5428780545833268 -6.56260470768845 -7.369323713738009 0.0 -7.951386703658792e-16 0.0 -0.8255781691743148 -2.994780578222592 -9.224224980901017 -13.704818009283102 1.4939441777948011e-06 -7.0200684438810954e-06 -4.9324391695447165 -4.43917581886091 18.548533997367514 11.822132433494515 -81.73084424126317 -23.863225802499716 63.46738873090382 -179.99999732184824 -179.9999995796886 0.0 0.0 0.0 -8.268909534750524 79.17771038595048 -34.23612027021806 -60.52758964976269 -179.99999232235638 179.99999017435903 2.3854160110976376e-15 0.0 0.0
-0.0 0.21127444505691528 0.0 25.00646573824218 159.08917401778814 -96.63648499719834 0.178361924621446 -13.267041870927144 2.934219993216588 -2.412997292801203 7.386226113986421 -16.99193781946732 0.0 3.975693351829397e-16 0.0 0.9196434161758397 3.9757029518912885 -11.189575200140453 -0.3720191589922964 -5.520975964082776 -5.53803812867672 -4.4139062980501586e-32 -7.951386703658792e-16 -6.3611093629270335e-15 -0.9821489460619929 -3.2667590461486977 -10.279709605412688 -14.179228944181297 -9.076659985393336e-08 9.049314974402144e-07 -3.5029909265995625 -5.000224751216281 23.116096867768523 12.033966158727273 -82.15382312433285 -26.692036075749733 60.502944628686876 -179.9999965060249 -179.99999282742658 -1.5902773407317584e-15 -4.4139062980501586e-32 3.1805546814635168e-15 -8.20281665643342 79.55984205636666 -32.71623731411708 -58.19071107534557 179.9999977538572 -179.9999986322973 -7.95138670365879e-16 -6.361109362927032e-15 4.4139062980501586e-32
-0.0 0.21127444505691528 0.0 24.94783114524481 160.56116762113746 -96.12895699845618 -0.07054389267514614 -13.1757447252689 2.2446418290041517 -2.1684349674222037 7.730829275271699 -16.451531676596257 1.5902773407317584e-15 0.0 0.0 1.121054696256048 4.7644439221517745 -10.66276489319212 -0.38738875247136295 -6.249320592059608 -6.014678418051709 0.0 -7.951386703658792e-16 0.0 -0.982479779971601 -3.146062572758351 -10.69891954292549 -13.278684189004009 1.1937096150872947e-06 -2.336599087649535e-07 -4.826573783895041 -4.472503079557338 23.46993993671363 12.204011076309548 -81.68698200483304 -28.426277673663304 58.755390347268865 179.99999827254982 179.99999832759772 0.0 0.0 0.0 -8.901186355545697 78.99605235650569 -34.20324684919831 -56.20692586574577 -179.99999662119245 179.99999593491987 -7.95138670365879e-16 6.361109362927032e-15 -4.4139062980501586e-32
-0.0 0.21127444505691528 0.0 25.376013754671632 163.70932765166148 -95.50096255563157 0.6156396471250782 -13.733176621391722 3.9554139523979837 -2.119368245981114 8.721580302073656 -17.992967713035714 0.0 -2.385416011097637e-15 0.0 1.0706669628625924 5.6463528129410845 -9.463110697160776 -0.2885743437044669 -6.594898706624102 -5.951153176109562 8.827812596100317e-32 -1.5902773407317584e-15 6.3611093629270335e-15 -0.9639167929430595 -2.9082682964901894 -11.890566529748924 -11.206125214609715 8.553751768045794e-07 2.6720368481871505e-06 -3.792446202356747 -4.81719094378984 26.34175280586067 12.42339833319414 -81.7349998664939 -29.394898753373244 57.06131810999913 -179.99999795086333 179.99999963651624 1.5902773407317588e-15 -8.758845310193283e-32 -6.311413196029168e-15 -9.536293417915855 78.59269026938517 -32.80384776601139 -53.94261047116721 -179.99999984528753 179.99999646159043 7.951386703658792e-16 2.2069531490250793e-32 3.1805546814635168e-15
-0.0 0.21127444505691528 0.0 25.539871297972393 164.4788515063806 -95.71733023456844 1.6238498779351827 -14.123376716671862 7.097886653975369 -2.5019619748373847 9.486560567552145 -22.154095367059348 1.5902773407317584e-15 3.975693351829396e-15 5.517382872562698e-32 0.9564225821718393 5.974524892419828 -8.338398475559664 -0.25310221410111405 -6.860071431982835 -5.547679976243161 -4.413906298050159e-31 3.975693351829396e-15 1.2722218725854067e-14 -1.0290912536163028 -3.0368731604103947 -12.584168298597335 -10.528028933625949 2.3508388622253656e-06 -3.5720775988691154e-06 -3.7000464058271465 -4.38853101707106 27.911117653088134 13.253477748418534 -81.69833267274241 -30.45693249567179 56.35963929201453 179.99998729155442 179.9999887563922 0.0 0.0 4.9696166897867443e-17 -10.523730111162319 78.18341396744222 -32.91634148213844 -53.75070753866401 -179.99999732418902 179.9999977961921 2.3854160110976376e-15 -6.3611093629270335e-15 -1.3241718894150476e-31
-0.0 0.21127444505691528 0.0 25.47269415561812 166.1586758741253 -95.85408000197745 2.642161398339114 -13.947609295984657 10.541932859629398 -2.3309385478102915 10.008160453417013 -25.088405756786077 1.5902773407317584e-15 -7.951386703658792e-16 -6.3611093629270335e-15 0.9395736809705729 6.208289078124174 -8.710620906169076 -0.031640598292499274 -5.997658065528058 -2.2091213972959665 -6.361109362927032e-15 -3.180554681463516e-15 1.7655625192200634e-31 -0.8615169291347298 -2.791703003177933 -13.017504678742062 -9.55479568726843 -3.2518020757707766e-06 2.9812221518407902e-06 -1.614024115787121 -3.0611329879323046 29.09093713362288 14.33391667211194 -81.8167201325012 -31.137247222891265 55.09879281911945 -179.99999257678493 -179.99999153292916 -1.5902773407317584e-15 4.4139062980501586e-32 -3.1805546814635168e-15 -12.036412178886385 77.97753691690286 -32.94572166430426 -52.07027140511796 179.99999333153355 -179.9999913927255 3.1805546814635168e-15 -8.827812596100317e-32 -3.1805546814635168e-15
-0.0 0.21127444505691528 0.0 25.41003804122655 171.7875017839444 -97.48655926561356 7.296558724772781 -12.091269010728308 26.591703566732594 -3.2055160256674213 11.500435062460484 -42.455041964731855 1.5902773407317584e-15 3.1805546814635168e-15 4.4139062980501586e-32 -0.35117063906764867 8.925404471280228 -0.7217894227602412 0.016574950542632538 -7.105826654879526 -2.4351975923238376 3.1805546814635164e-15 1.5902773407317582e-15 4.4139062980501586e-32 -0.8489871955490084 -2.013321121508855 -14.11048005633461 -5.28602134083464 -1.4411459517533757e-06 3.5927147551185137e-06 -1.523108760690583 -1.4111900992140654 32.964866047819385 18.849377816737235 -81.16759706948407 -37.26061790329148 50.22804749599335 -179.99999507252423 -179.99999228104042 1.5902773407317584e-15 -6.3611093629270335e-15 3.975693351829395e-16 -16.486523015171823 76.6464207052559 -35.22747730410285 -46.879713864041015 179.9999996926806 -179.9999948018902 -7.951386703658792e-15 0.0 0.0
